<mxfile host="app.diagrams.net" modified="2023-02-09T09:00:59.294Z" agent="5.0 (Windows)" etag="JF1zTO8EV8ShUojpYOdd" version="20.8.18" type="github">
  <diagram name="Page-1" id="rD8-XgdZVrx5kh4h4meA">
    <mxGraphModel dx="1434" dy="726" grid="1" gridSize="10" guides="1" tooltips="1" connect="1" arrows="1" fold="1" page="1" pageScale="1" pageWidth="2339" pageHeight="3300" math="0" shadow="0">
      <root>
        <mxCell id="0" />
        <mxCell id="1" parent="0" />
        <mxCell id="sW4PJiHnGv3y8o1NNTZ8-1" value="Student View" style="rounded=1;whiteSpace=wrap;html=1;" vertex="1" parent="1">
          <mxGeometry x="950" y="320" width="240" height="160" as="geometry" />
        </mxCell>
        <mxCell id="sW4PJiHnGv3y8o1NNTZ8-2" value="OLD SIS" style="rounded=1;whiteSpace=wrap;html=1;" vertex="1" parent="1">
          <mxGeometry x="360" y="320" width="240" height="160" as="geometry" />
        </mxCell>
        <mxCell id="sW4PJiHnGv3y8o1NNTZ8-3" value="" style="rounded=0;whiteSpace=wrap;html=1;fillColor=#bac8d3;strokeColor=#23445d;" vertex="1" parent="1">
          <mxGeometry x="470" y="410" width="120" height="60" as="geometry" />
        </mxCell>
        <mxCell id="sW4PJiHnGv3y8o1NNTZ8-4" value="S3" style="rounded=0;whiteSpace=wrap;html=1;fillColor=#dae8fc;strokeColor=#6c8ebf;" vertex="1" parent="1">
          <mxGeometry x="1020" y="650" width="120" height="60" as="geometry" />
        </mxCell>
        <mxCell id="sW4PJiHnGv3y8o1NNTZ8-5" value="&lt;div&gt;Media&lt;/div&gt;&lt;div&gt;Attachment&lt;br&gt;&lt;/div&gt;" style="rounded=1;whiteSpace=wrap;html=1;" vertex="1" parent="1">
          <mxGeometry x="1120" y="440" width="120" height="60" as="geometry" />
        </mxCell>
        <mxCell id="sW4PJiHnGv3y8o1NNTZ8-6" value="Key and location" style="rounded=0;whiteSpace=wrap;html=1;" vertex="1" parent="1">
          <mxGeometry x="1180" y="490" width="120" height="60" as="geometry" />
        </mxCell>
        <mxCell id="sW4PJiHnGv3y8o1NNTZ8-8" style="edgeStyle=orthogonalEdgeStyle;rounded=0;orthogonalLoop=1;jettySize=auto;html=1;entryX=0.5;entryY=0;entryDx=0;entryDy=0;" edge="1" parent="1" source="sW4PJiHnGv3y8o1NNTZ8-7" target="sW4PJiHnGv3y8o1NNTZ8-1">
          <mxGeometry relative="1" as="geometry" />
        </mxCell>
        <mxCell id="sW4PJiHnGv3y8o1NNTZ8-7" value="Actor" style="shape=umlActor;verticalLabelPosition=bottom;verticalAlign=top;html=1;outlineConnect=0;" vertex="1" parent="1">
          <mxGeometry x="1055" y="40" width="30" height="60" as="geometry" />
        </mxCell>
        <mxCell id="sW4PJiHnGv3y8o1NNTZ8-9" value="Guid id" style="text;html=1;align=center;verticalAlign=middle;resizable=0;points=[];autosize=1;strokeColor=none;fillColor=none;" vertex="1" parent="1">
          <mxGeometry x="1080" y="165" width="60" height="30" as="geometry" />
        </mxCell>
        <mxCell id="sW4PJiHnGv3y8o1NNTZ8-10" value="&lt;div&gt;1- Upload old sis files on s3&lt;/div&gt;&lt;div&gt;2- atia save in the database file location not GUID (to be progress)&lt;br&gt;&lt;/div&gt;&lt;div&gt;&lt;br&gt;&lt;/div&gt;&lt;div&gt;3- use global file down&lt;/div&gt;&lt;div&gt;4- use global file upload&lt;br&gt;&lt;/div&gt;" style="text;html=1;strokeColor=none;fillColor=none;align=center;verticalAlign=middle;whiteSpace=wrap;rounded=0;" vertex="1" parent="1">
          <mxGeometry x="511" y="160" width="410" height="100" as="geometry" />
        </mxCell>
        <mxCell id="sW4PJiHnGv3y8o1NNTZ8-11" value="location" style="text;html=1;strokeColor=none;fillColor=none;align=center;verticalAlign=middle;whiteSpace=wrap;rounded=0;" vertex="1" parent="1">
          <mxGeometry x="995" y="165" width="60" height="30" as="geometry" />
        </mxCell>
        <mxCell id="sW4PJiHnGv3y8o1NNTZ8-13" style="edgeStyle=orthogonalEdgeStyle;rounded=0;orthogonalLoop=1;jettySize=auto;html=1;entryX=0.5;entryY=0;entryDx=0;entryDy=0;" edge="1" parent="1" source="sW4PJiHnGv3y8o1NNTZ8-12" target="sW4PJiHnGv3y8o1NNTZ8-3">
          <mxGeometry relative="1" as="geometry" />
        </mxCell>
        <mxCell id="sW4PJiHnGv3y8o1NNTZ8-14" style="edgeStyle=orthogonalEdgeStyle;rounded=0;orthogonalLoop=1;jettySize=auto;html=1;entryX=0;entryY=0.3333333333333333;entryDx=0;entryDy=0;entryPerimeter=0;" edge="1" parent="1" source="sW4PJiHnGv3y8o1NNTZ8-12" target="sW4PJiHnGv3y8o1NNTZ8-7">
          <mxGeometry relative="1" as="geometry">
            <Array as="points">
              <mxPoint x="415" y="100" />
              <mxPoint x="743" y="100" />
              <mxPoint x="743" y="60" />
            </Array>
          </mxGeometry>
        </mxCell>
        <mxCell id="sW4PJiHnGv3y8o1NNTZ8-12" value="Actor" style="shape=umlActor;verticalLabelPosition=bottom;verticalAlign=top;html=1;outlineConnect=0;" vertex="1" parent="1">
          <mxGeometry x="400" y="360" width="30" height="60" as="geometry" />
        </mxCell>
      </root>
    </mxGraphModel>
  </diagram>
</mxfile>
